<mxfile host="app.diagrams.net" modified="2023-12-30T18:04:00.489Z" agent="Mozilla/5.0 (Windows NT 10.0; Win64; x64) AppleWebKit/537.36 (KHTML, like Gecko) Chrome/120.0.0.0 Safari/537.36" etag="Pvvq2cxSQMVZ4e72w0Af" version="22.1.14" type="device">
  <diagram name="Page-1" id="radl8Tr2VW9J61jBMA1z">
    <mxGraphModel dx="2284" dy="746" grid="1" gridSize="10" guides="1" tooltips="1" connect="1" arrows="1" fold="1" page="1" pageScale="1" pageWidth="850" pageHeight="1100" math="0" shadow="0">
      <root>
        <mxCell id="0" />
        <mxCell id="1" parent="0" />
        <mxCell id="yB8sBW4Ziaw1Jw08Tbaj-1" value="&lt;font style=&quot;font-size: 20px;&quot;&gt;HOME&lt;/font&gt;" style="ellipse;whiteSpace=wrap;html=1;" parent="1" vertex="1">
          <mxGeometry x="251.25" y="430" width="277.5" height="270" as="geometry" />
        </mxCell>
        <mxCell id="yB8sBW4Ziaw1Jw08Tbaj-2" value="&lt;font style=&quot;font-size: 20px;&quot;&gt;LOGIN&lt;/font&gt;" style="ellipse;whiteSpace=wrap;html=1;" parent="1" vertex="1">
          <mxGeometry x="350" y="140" width="80" height="70" as="geometry" />
        </mxCell>
        <mxCell id="yB8sBW4Ziaw1Jw08Tbaj-3" value="&lt;font style=&quot;font-size: 20px;&quot;&gt;REGISTRATION&lt;/font&gt;" style="ellipse;whiteSpace=wrap;html=1;" parent="1" vertex="1">
          <mxGeometry x="-120" y="470" width="155" height="120" as="geometry" />
        </mxCell>
        <mxCell id="yB8sBW4Ziaw1Jw08Tbaj-4" value="&lt;font style=&quot;font-size: 20px;&quot;&gt;TREADMIL&lt;/font&gt;" style="ellipse;whiteSpace=wrap;html=1;" parent="1" vertex="1">
          <mxGeometry x="-50" y="680" width="120" height="100" as="geometry" />
        </mxCell>
        <mxCell id="yB8sBW4Ziaw1Jw08Tbaj-5" value="&lt;font style=&quot;font-size: 20px;&quot;&gt;PRE-DISCIPLINE&lt;/font&gt;" style="ellipse;whiteSpace=wrap;html=1;" parent="1" vertex="1">
          <mxGeometry x="840" y="590" width="130" height="140" as="geometry" />
        </mxCell>
        <mxCell id="yB8sBW4Ziaw1Jw08Tbaj-6" value="&lt;font style=&quot;font-size: 20px;&quot;&gt;RESULTS&lt;/font&gt;" style="ellipse;whiteSpace=wrap;html=1;" parent="1" vertex="1">
          <mxGeometry x="260" y="890" width="120" height="120" as="geometry" />
        </mxCell>
        <mxCell id="yB8sBW4Ziaw1Jw08Tbaj-7" value="&lt;font style=&quot;font-size: 20px;&quot;&gt;HIGH JUMP&lt;/font&gt;" style="ellipse;whiteSpace=wrap;html=1;" parent="1" vertex="1">
          <mxGeometry x="680" y="430" width="110" height="120" as="geometry" />
        </mxCell>
        <mxCell id="yB8sBW4Ziaw1Jw08Tbaj-8" value="&lt;font style=&quot;font-size: 20px;&quot;&gt;WALL CLIMB&lt;/font&gt;" style="ellipse;whiteSpace=wrap;html=1;" parent="1" vertex="1">
          <mxGeometry x="680" y="760" width="110" height="100" as="geometry" />
        </mxCell>
        <mxCell id="yB8sBW4Ziaw1Jw08Tbaj-9" value="&lt;font style=&quot;font-size: 20px;&quot;&gt;LONG JUMP&lt;/font&gt;" style="ellipse;whiteSpace=wrap;html=1;" parent="1" vertex="1">
          <mxGeometry x="690" y="290" width="110" height="120" as="geometry" />
        </mxCell>
        <mxCell id="yB8sBW4Ziaw1Jw08Tbaj-13" value="" style="endArrow=open;endFill=1;endSize=12;html=1;rounded=0;exitX=0.5;exitY=1;exitDx=0;exitDy=0;" parent="1" source="yB8sBW4Ziaw1Jw08Tbaj-2" target="yB8sBW4Ziaw1Jw08Tbaj-1" edge="1">
          <mxGeometry width="160" relative="1" as="geometry">
            <mxPoint x="340" y="380" as="sourcePoint" />
            <mxPoint x="500" y="380" as="targetPoint" />
          </mxGeometry>
        </mxCell>
        <mxCell id="yB8sBW4Ziaw1Jw08Tbaj-14" value="&lt;font style=&quot;font-size: 20px;&quot;&gt;Ok&lt;/font&gt;" style="edgeLabel;html=1;align=center;verticalAlign=middle;resizable=0;points=[];" parent="yB8sBW4Ziaw1Jw08Tbaj-13" vertex="1" connectable="0">
          <mxGeometry x="-0.0597" y="2" relative="1" as="geometry">
            <mxPoint as="offset" />
          </mxGeometry>
        </mxCell>
        <mxCell id="yB8sBW4Ziaw1Jw08Tbaj-20" value="" style="endArrow=open;endFill=1;endSize=12;html=1;rounded=0;exitX=1;exitY=0.5;exitDx=0;exitDy=0;entryX=0;entryY=0.55;entryDx=0;entryDy=0;entryPerimeter=0;" parent="1" source="yB8sBW4Ziaw1Jw08Tbaj-1" target="yB8sBW4Ziaw1Jw08Tbaj-5" edge="1">
          <mxGeometry width="160" relative="1" as="geometry">
            <mxPoint x="410" y="300" as="sourcePoint" />
            <mxPoint x="410" y="410" as="targetPoint" />
          </mxGeometry>
        </mxCell>
        <mxCell id="yB8sBW4Ziaw1Jw08Tbaj-21" value="&lt;span style=&quot;font-size: 20px;&quot;&gt;Wall Climb/&lt;br&gt;High Jump/&lt;br&gt;Long Jump&lt;br&gt;&lt;/span&gt;" style="edgeLabel;html=1;align=center;verticalAlign=middle;resizable=0;points=[];" parent="yB8sBW4Ziaw1Jw08Tbaj-20" vertex="1" connectable="0">
          <mxGeometry x="-0.0597" y="2" relative="1" as="geometry">
            <mxPoint as="offset" />
          </mxGeometry>
        </mxCell>
        <mxCell id="yB8sBW4Ziaw1Jw08Tbaj-22" value="" style="endArrow=open;endFill=1;endSize=12;html=1;rounded=0;" parent="1" source="yB8sBW4Ziaw1Jw08Tbaj-5" target="yB8sBW4Ziaw1Jw08Tbaj-8" edge="1">
          <mxGeometry width="160" relative="1" as="geometry">
            <mxPoint x="450" y="440" as="sourcePoint" />
            <mxPoint x="800" y="437" as="targetPoint" />
          </mxGeometry>
        </mxCell>
        <mxCell id="yB8sBW4Ziaw1Jw08Tbaj-23" value="&lt;font style=&quot;font-size: 20px;&quot;&gt;Start&lt;/font&gt;" style="edgeLabel;html=1;align=center;verticalAlign=middle;resizable=0;points=[];" parent="yB8sBW4Ziaw1Jw08Tbaj-22" vertex="1" connectable="0">
          <mxGeometry x="-0.0597" y="2" relative="1" as="geometry">
            <mxPoint as="offset" />
          </mxGeometry>
        </mxCell>
        <mxCell id="yB8sBW4Ziaw1Jw08Tbaj-24" value="" style="endArrow=open;endFill=1;endSize=12;html=1;rounded=0;exitX=0;exitY=0;exitDx=0;exitDy=0;entryX=1;entryY=1;entryDx=0;entryDy=0;" parent="1" source="yB8sBW4Ziaw1Jw08Tbaj-5" target="yB8sBW4Ziaw1Jw08Tbaj-7" edge="1">
          <mxGeometry width="160" relative="1" as="geometry">
            <mxPoint x="819" y="479" as="sourcePoint" />
            <mxPoint x="745" y="620" as="targetPoint" />
          </mxGeometry>
        </mxCell>
        <mxCell id="yB8sBW4Ziaw1Jw08Tbaj-25" value="&lt;font style=&quot;font-size: 20px;&quot;&gt;Start&lt;/font&gt;" style="edgeLabel;html=1;align=center;verticalAlign=middle;resizable=0;points=[];" parent="yB8sBW4Ziaw1Jw08Tbaj-24" vertex="1" connectable="0">
          <mxGeometry x="-0.0597" y="2" relative="1" as="geometry">
            <mxPoint as="offset" />
          </mxGeometry>
        </mxCell>
        <mxCell id="yB8sBW4Ziaw1Jw08Tbaj-26" value="" style="endArrow=open;endFill=1;endSize=12;html=1;rounded=0;exitX=0.5;exitY=0;exitDx=0;exitDy=0;entryX=1;entryY=0.5;entryDx=0;entryDy=0;" parent="1" source="yB8sBW4Ziaw1Jw08Tbaj-5" target="yB8sBW4Ziaw1Jw08Tbaj-9" edge="1">
          <mxGeometry width="160" relative="1" as="geometry">
            <mxPoint x="819" y="381" as="sourcePoint" />
            <mxPoint x="650" y="260" as="targetPoint" />
          </mxGeometry>
        </mxCell>
        <mxCell id="yB8sBW4Ziaw1Jw08Tbaj-27" value="&lt;font style=&quot;font-size: 20px;&quot;&gt;Start&lt;/font&gt;" style="edgeLabel;html=1;align=center;verticalAlign=middle;resizable=0;points=[];" parent="yB8sBW4Ziaw1Jw08Tbaj-26" vertex="1" connectable="0">
          <mxGeometry x="-0.0597" y="2" relative="1" as="geometry">
            <mxPoint as="offset" />
          </mxGeometry>
        </mxCell>
        <mxCell id="yB8sBW4Ziaw1Jw08Tbaj-28" value="" style="endArrow=open;endFill=1;endSize=12;html=1;rounded=0;entryX=1;entryY=0.5;entryDx=0;entryDy=0;exitX=0.075;exitY=0.8;exitDx=0;exitDy=0;exitPerimeter=0;" parent="1" source="yB8sBW4Ziaw1Jw08Tbaj-1" target="yB8sBW4Ziaw1Jw08Tbaj-4" edge="1">
          <mxGeometry width="160" relative="1" as="geometry">
            <mxPoint x="450" y="440" as="sourcePoint" />
            <mxPoint x="800" y="437" as="targetPoint" />
          </mxGeometry>
        </mxCell>
        <mxCell id="yB8sBW4Ziaw1Jw08Tbaj-29" value="&lt;span style=&quot;font-size: 20px;&quot;&gt;Treadmil&lt;br&gt;&lt;/span&gt;" style="edgeLabel;html=1;align=center;verticalAlign=middle;resizable=0;points=[];" parent="yB8sBW4Ziaw1Jw08Tbaj-28" vertex="1" connectable="0">
          <mxGeometry x="-0.0597" y="2" relative="1" as="geometry">
            <mxPoint as="offset" />
          </mxGeometry>
        </mxCell>
        <mxCell id="yB8sBW4Ziaw1Jw08Tbaj-30" value="" style="endArrow=open;endFill=1;endSize=12;html=1;rounded=0;entryX=1;entryY=1;entryDx=0;entryDy=0;" parent="1" source="yB8sBW4Ziaw1Jw08Tbaj-1" target="yB8sBW4Ziaw1Jw08Tbaj-3" edge="1">
          <mxGeometry width="160" relative="1" as="geometry">
            <mxPoint x="350" y="440" as="sourcePoint" />
            <mxPoint x="190" y="440" as="targetPoint" />
          </mxGeometry>
        </mxCell>
        <mxCell id="yB8sBW4Ziaw1Jw08Tbaj-31" value="&lt;span style=&quot;font-size: 20px;&quot;&gt;Register&lt;br&gt;&lt;/span&gt;" style="edgeLabel;html=1;align=center;verticalAlign=middle;resizable=0;points=[];" parent="yB8sBW4Ziaw1Jw08Tbaj-30" vertex="1" connectable="0">
          <mxGeometry x="-0.0597" y="2" relative="1" as="geometry">
            <mxPoint as="offset" />
          </mxGeometry>
        </mxCell>
        <mxCell id="yB8sBW4Ziaw1Jw08Tbaj-32" value="&lt;font style=&quot;font-size: 20px;&quot;&gt;CONFIGURATION&lt;/font&gt;" style="ellipse;whiteSpace=wrap;html=1;" parent="1" vertex="1">
          <mxGeometry y="210" width="180" height="140" as="geometry" />
        </mxCell>
        <mxCell id="yB8sBW4Ziaw1Jw08Tbaj-33" value="" style="endArrow=open;endFill=1;endSize=12;html=1;rounded=0;entryX=0.5;entryY=1;entryDx=0;entryDy=0;exitX=0;exitY=0;exitDx=0;exitDy=0;" parent="1" source="yB8sBW4Ziaw1Jw08Tbaj-1" target="yB8sBW4Ziaw1Jw08Tbaj-32" edge="1">
          <mxGeometry width="160" relative="1" as="geometry">
            <mxPoint x="352" y="428" as="sourcePoint" />
            <mxPoint x="142" y="373" as="targetPoint" />
          </mxGeometry>
        </mxCell>
        <mxCell id="yB8sBW4Ziaw1Jw08Tbaj-34" value="&lt;span style=&quot;font-size: 20px;&quot;&gt;Configure&lt;br&gt;&lt;/span&gt;" style="edgeLabel;html=1;align=center;verticalAlign=middle;resizable=0;points=[];" parent="yB8sBW4Ziaw1Jw08Tbaj-33" vertex="1" connectable="0">
          <mxGeometry x="-0.0597" y="2" relative="1" as="geometry">
            <mxPoint as="offset" />
          </mxGeometry>
        </mxCell>
        <mxCell id="yB8sBW4Ziaw1Jw08Tbaj-36" value="" style="endArrow=open;endFill=1;endSize=12;html=1;rounded=0;exitX=0;exitY=1;exitDx=0;exitDy=0;labelPosition=center;verticalLabelPosition=bottom;align=center;verticalAlign=top;textDirection=ltr;" parent="1" source="yB8sBW4Ziaw1Jw08Tbaj-1" target="yB8sBW4Ziaw1Jw08Tbaj-6" edge="1">
          <mxGeometry width="160" relative="1" as="geometry">
            <mxPoint x="350" y="440" as="sourcePoint" />
            <mxPoint x="140" y="470" as="targetPoint" />
          </mxGeometry>
        </mxCell>
        <mxCell id="yB8sBW4Ziaw1Jw08Tbaj-37" value="&lt;span style=&quot;font-size: 20px;&quot;&gt;Results&lt;br&gt;&lt;/span&gt;" style="edgeLabel;html=1;align=center;verticalAlign=middle;resizable=0;points=[];rotation=90;" parent="yB8sBW4Ziaw1Jw08Tbaj-36" vertex="1" connectable="0">
          <mxGeometry x="-0.0597" y="2" relative="1" as="geometry">
            <mxPoint as="offset" />
          </mxGeometry>
        </mxCell>
        <mxCell id="yB8sBW4Ziaw1Jw08Tbaj-50" value="" style="endArrow=open;endFill=1;endSize=12;html=1;rounded=0;exitX=0.779;exitY=0.058;exitDx=0;exitDy=0;entryX=0.5;entryY=1;entryDx=0;entryDy=0;exitPerimeter=0;" parent="1" source="yB8sBW4Ziaw1Jw08Tbaj-6" target="yB8sBW4Ziaw1Jw08Tbaj-1" edge="1">
          <mxGeometry width="160" relative="1" as="geometry">
            <mxPoint x="462" y="879" as="sourcePoint" />
            <mxPoint x="442" y="732" as="targetPoint" />
          </mxGeometry>
        </mxCell>
        <mxCell id="yB8sBW4Ziaw1Jw08Tbaj-51" value="&lt;span style=&quot;font-size: 20px;&quot;&gt;Cancel&lt;br&gt;&lt;/span&gt;" style="edgeLabel;html=1;align=center;verticalAlign=middle;resizable=0;points=[];rotation=270;" parent="yB8sBW4Ziaw1Jw08Tbaj-50" vertex="1" connectable="0">
          <mxGeometry x="-0.0597" y="2" relative="1" as="geometry">
            <mxPoint as="offset" />
          </mxGeometry>
        </mxCell>
        <mxCell id="yB8sBW4Ziaw1Jw08Tbaj-58" value="" style="endArrow=open;endFill=1;endSize=12;html=1;rounded=0;exitX=-0.018;exitY=0.42;exitDx=0;exitDy=0;entryX=0.722;entryY=0.96;entryDx=0;entryDy=0;exitPerimeter=0;entryPerimeter=0;" parent="1" source="yB8sBW4Ziaw1Jw08Tbaj-8" target="yB8sBW4Ziaw1Jw08Tbaj-1" edge="1">
          <mxGeometry width="160" relative="1" as="geometry">
            <mxPoint x="427" y="813" as="sourcePoint" />
            <mxPoint x="440" y="550" as="targetPoint" />
          </mxGeometry>
        </mxCell>
        <mxCell id="yB8sBW4Ziaw1Jw08Tbaj-59" value="&lt;span style=&quot;font-size: 20px;&quot;&gt;Cancel/Finish&lt;br&gt;&lt;/span&gt;" style="edgeLabel;html=1;align=center;verticalAlign=middle;resizable=0;points=[];rotation=0;" parent="yB8sBW4Ziaw1Jw08Tbaj-58" vertex="1" connectable="0">
          <mxGeometry x="-0.0597" y="2" relative="1" as="geometry">
            <mxPoint as="offset" />
          </mxGeometry>
        </mxCell>
        <mxCell id="yB8sBW4Ziaw1Jw08Tbaj-60" value="" style="endArrow=open;endFill=1;endSize=12;html=1;rounded=0;exitX=0;exitY=0.5;exitDx=0;exitDy=0;entryX=0.933;entryY=0.24;entryDx=0;entryDy=0;entryPerimeter=0;" parent="1" source="yB8sBW4Ziaw1Jw08Tbaj-7" target="yB8sBW4Ziaw1Jw08Tbaj-1" edge="1">
          <mxGeometry width="160" relative="1" as="geometry">
            <mxPoint x="728" y="682" as="sourcePoint" />
            <mxPoint x="480" y="544" as="targetPoint" />
          </mxGeometry>
        </mxCell>
        <mxCell id="yB8sBW4Ziaw1Jw08Tbaj-61" value="&lt;span style=&quot;font-size: 20px;&quot;&gt;Cancel/Finish&lt;br&gt;&lt;/span&gt;" style="edgeLabel;html=1;align=center;verticalAlign=middle;resizable=0;points=[];rotation=0;" parent="yB8sBW4Ziaw1Jw08Tbaj-60" vertex="1" connectable="0">
          <mxGeometry x="-0.0597" y="2" relative="1" as="geometry">
            <mxPoint as="offset" />
          </mxGeometry>
        </mxCell>
        <mxCell id="yB8sBW4Ziaw1Jw08Tbaj-62" value="" style="endArrow=open;endFill=1;endSize=12;html=1;rounded=0;exitX=0;exitY=0.5;exitDx=0;exitDy=0;entryX=0.703;entryY=0.027;entryDx=0;entryDy=0;entryPerimeter=0;" parent="1" source="yB8sBW4Ziaw1Jw08Tbaj-9" target="yB8sBW4Ziaw1Jw08Tbaj-1" edge="1">
          <mxGeometry width="160" relative="1" as="geometry">
            <mxPoint x="696" y="372" as="sourcePoint" />
            <mxPoint x="525" y="436" as="targetPoint" />
          </mxGeometry>
        </mxCell>
        <mxCell id="yB8sBW4Ziaw1Jw08Tbaj-63" value="&lt;span style=&quot;font-size: 20px;&quot;&gt;Cancel/Finish&lt;br&gt;&lt;/span&gt;" style="edgeLabel;html=1;align=center;verticalAlign=middle;resizable=0;points=[];rotation=0;" parent="yB8sBW4Ziaw1Jw08Tbaj-62" vertex="1" connectable="0">
          <mxGeometry x="-0.0597" y="2" relative="1" as="geometry">
            <mxPoint as="offset" />
          </mxGeometry>
        </mxCell>
        <mxCell id="yB8sBW4Ziaw1Jw08Tbaj-64" value="" style="endArrow=open;endFill=1;endSize=12;html=1;rounded=0;exitX=1.011;exitY=0.621;exitDx=0;exitDy=0;exitPerimeter=0;" parent="1" source="yB8sBW4Ziaw1Jw08Tbaj-32" target="yB8sBW4Ziaw1Jw08Tbaj-1" edge="1">
          <mxGeometry width="160" relative="1" as="geometry">
            <mxPoint x="700" y="360" as="sourcePoint" />
            <mxPoint x="455" y="447" as="targetPoint" />
          </mxGeometry>
        </mxCell>
        <mxCell id="yB8sBW4Ziaw1Jw08Tbaj-65" value="&lt;span style=&quot;font-size: 20px;&quot;&gt;Cancel/Finish&lt;br&gt;&lt;/span&gt;" style="edgeLabel;html=1;align=center;verticalAlign=middle;resizable=0;points=[];rotation=0;" parent="yB8sBW4Ziaw1Jw08Tbaj-64" vertex="1" connectable="0">
          <mxGeometry x="-0.0597" y="2" relative="1" as="geometry">
            <mxPoint as="offset" />
          </mxGeometry>
        </mxCell>
        <mxCell id="yB8sBW4Ziaw1Jw08Tbaj-66" value="" style="endArrow=open;endFill=1;endSize=12;html=1;rounded=0;exitX=0.929;exitY=0.217;exitDx=0;exitDy=0;entryX=0;entryY=0.37;entryDx=0;entryDy=0;entryPerimeter=0;exitPerimeter=0;" parent="1" source="yB8sBW4Ziaw1Jw08Tbaj-3" target="yB8sBW4Ziaw1Jw08Tbaj-1" edge="1">
          <mxGeometry width="160" relative="1" as="geometry">
            <mxPoint x="710" y="370" as="sourcePoint" />
            <mxPoint x="465" y="457" as="targetPoint" />
          </mxGeometry>
        </mxCell>
        <mxCell id="yB8sBW4Ziaw1Jw08Tbaj-67" value="&lt;span style=&quot;font-size: 20px;&quot;&gt;Cancel/Finish&lt;br&gt;&lt;/span&gt;" style="edgeLabel;html=1;align=center;verticalAlign=middle;resizable=0;points=[];rotation=0;" parent="yB8sBW4Ziaw1Jw08Tbaj-66" vertex="1" connectable="0">
          <mxGeometry x="-0.0597" y="2" relative="1" as="geometry">
            <mxPoint as="offset" />
          </mxGeometry>
        </mxCell>
        <mxCell id="yB8sBW4Ziaw1Jw08Tbaj-68" value="" style="endArrow=open;endFill=1;endSize=12;html=1;rounded=0;exitX=0.75;exitY=0;exitDx=0;exitDy=0;entryX=0.017;entryY=0.667;entryDx=0;entryDy=0;entryPerimeter=0;exitPerimeter=0;" parent="1" source="yB8sBW4Ziaw1Jw08Tbaj-4" target="yB8sBW4Ziaw1Jw08Tbaj-1" edge="1">
          <mxGeometry width="160" relative="1" as="geometry">
            <mxPoint x="34" y="506" as="sourcePoint" />
            <mxPoint x="261" y="540" as="targetPoint" />
          </mxGeometry>
        </mxCell>
        <mxCell id="yB8sBW4Ziaw1Jw08Tbaj-69" value="&lt;span style=&quot;font-size: 20px;&quot;&gt;Cancel/Finish&lt;br&gt;&lt;/span&gt;" style="edgeLabel;html=1;align=center;verticalAlign=middle;resizable=0;points=[];rotation=0;" parent="yB8sBW4Ziaw1Jw08Tbaj-68" vertex="1" connectable="0">
          <mxGeometry x="-0.0597" y="2" relative="1" as="geometry">
            <mxPoint as="offset" />
          </mxGeometry>
        </mxCell>
      </root>
    </mxGraphModel>
  </diagram>
</mxfile>
